# Blender v2.78 (sub 0) OBJ File: '10.blend'
# www.blender.org
mtllib SurfBoard_01.mtl
g Surfboard_Cube.027
v 0.459734 22.666252 -2.030788
v 0.459733 -11.522112 -4.151684
v 0.459733 -16.884487 2.036435
v -2.436120 -11.412504 2.265718
v 0.459733 -13.170706 2.021419
v 0.459733 -11.522112 4.151684
v 0.459733 -13.170706 -2.021419
v -2.436120 -11.452078 1.956527
v 0.459733 -16.884487 -2.036435
v 0.459734 22.666252 2.030788
v -0.112522 22.666252 2.030788
v -0.108122 -16.884487 -2.036435
v -0.104739 -11.522112 4.151684
v -0.108122 -16.884487 2.036435
v -0.104739 -11.522112 -4.151684
v -0.112522 22.666252 -2.030788
v -0.461965 19.681303 2.015672
v 0.459734 17.613993 3.602244
v 0.459734 19.681303 -2.015672
v -0.112603 17.613993 -3.602244
v 0.459733 -11.825079 -3.564694
v -0.108650 -13.843996 -3.583465
v -0.451630 -15.760918 -2.006401
v 0.459733 -15.760918 2.006401
v -0.108650 -13.843996 3.583465
v -0.447402 -11.825080 3.564694
v -0.447401 -11.825080 -3.564694
v 0.459733 -11.825080 3.564694
v 0.459733 -9.339753 2.062356
v -2.436120 -13.061467 -2.265718
v -0.102021 -8.742336 4.238045
v -0.102021 -8.742336 -4.238045
v -0.461965 19.681303 -2.015672
v 0.459734 19.681303 2.015672
v -0.451630 -15.760918 2.006401
v 0.459733 -15.760918 -2.006401
v 0.459733 -9.339753 -2.062356
v -2.436120 -13.061467 -1.956527
v 0.459733 -14.104184 0.000000
v -2.436120 -13.061467 1.956527
v -0.106749 -18.060110 0.000000
v -0.112570 24.531750 0.000000
v -0.112603 17.613993 3.602244
v 0.459734 17.613993 -3.602244
v 0.459733 -13.843996 -3.583465
v 0.459733 -13.843996 3.583465
v 0.459733 -8.742336 4.238045
v 0.459733 -8.742335 -4.238045
v 0.459733 -18.060110 0.000000
v 0.459734 24.531750 0.000000
v 0.261708 22.873508 2.055921
v 0.262217 -17.079609 -2.062715
v 0.268644 -11.631292 4.206108
v 0.262217 -17.079609 2.062715
v 0.268644 -11.631292 -4.206108
v 0.261708 22.873508 -2.055921
v -0.370605 16.215738 3.191591
v 0.459734 16.215738 3.191591
v -0.370605 16.215738 -3.191591
v 0.459734 16.215738 -3.191591
v -0.361056 -13.793632 3.156523
v 0.459733 -13.793632 3.156523
v -0.361056 -13.793632 -3.156523
v 0.459733 -13.793632 -3.156523
v -0.445562 -8.826187 -3.637456
v 0.459733 -8.826187 -3.637456
v -0.445562 -8.826187 3.637456
v 0.459733 -8.826187 3.637456
v -0.463629 21.288303 0.000000
v 0.459734 21.288307 0.000000
v -0.451176 -17.245926 0.000000
v 0.459733 -17.245926 0.000000
v 0.459733 -9.703964 0.000000
v -2.436120 -13.061467 2.265718
v 0.263365 17.772781 3.647825
v 0.263365 17.772781 -3.647825
v 0.264143 -13.994349 -3.629921
v 0.264143 -13.994349 3.629921
v 0.272973 -8.807838 4.294712
v 0.272973 -8.807838 -4.294712
v 0.261899 -18.278521 0.000000
v 0.261646 24.761400 0.000000
v -0.556206 -13.061467 2.265718
v -0.568744 -13.061467 1.956527
v -0.561420 -13.324631 2.020526
v -0.568744 -13.061467 -1.956527
v -0.556206 -13.061467 -2.265718
v -0.561420 -13.324631 -2.020526
v -0.575408 -9.367017 1.956527
v -0.561969 -9.289507 2.265718
v -0.574690 -8.259353 2.062418
v -0.561969 -9.289507 -2.265718
v -0.575408 -9.367017 -1.956527
v -0.574690 -8.259353 -2.062418
v -0.573023 -11.343709 0.154082
v -0.573023 -11.343709 -0.154082
v -0.567418 -11.568831 0.000000
v -0.584668 -6.987434 -0.154082
v -0.584668 -6.987434 0.154082
v -0.585541 -5.930557 -0.000000
v -2.436120 -11.412504 -2.265718
v -2.436120 -11.452078 -1.956527
v -2.451107 -11.450260 0.154082
v -2.451107 -11.450260 -0.154082
v -2.451107 -9.226091 -0.154082
v -2.451107 -9.226091 0.154082
v -3.293352 -11.103181 -0.063008
v -3.281708 -11.709572 -0.063008
v -3.281708 -11.709572 0.063008
v -3.293352 -11.103181 0.063008
v -3.271776 -12.814245 -2.174341
v -3.271776 -13.350073 -2.174341
v -3.271776 -13.350073 -2.047905
v -3.271776 -12.825035 -2.047905
v -3.271775 -12.825035 2.047905
v -3.271777 -13.350073 2.047905
v -3.271777 -13.350073 2.174340
v -3.271775 -12.814245 2.174340
v 0.459733 11.361387 4.132688
v 0.459733 8.495332 4.253739
v 0.459733 12.906432 2.061685
v 0.459733 10.131063 2.070280
v 0.459733 12.906431 -2.061685
v 0.459733 10.131063 -2.070280
v -0.112955 11.361893 4.132645
v -0.112196 8.495274 4.253739
v -0.112196 8.495275 -4.253739
v -0.112955 11.361894 -4.132645
v -0.586757 10.130979 -2.070253
v -0.566828 12.903887 -2.061702
v 0.459733 8.495333 -4.253739
v 0.459733 11.361387 -4.132688
v -0.586757 10.130980 2.070253
v -0.566828 12.903886 2.061702
v -0.461332 8.801243 -3.651222
v -0.440606 11.657810 -3.542158
v 0.459733 8.801373 3.651222
v 0.459733 11.661483 3.541876
v -0.593450 11.051779 -0.000000
v -0.574206 13.820901 0.000000
v 0.267204 11.464437 4.188157
v 0.268451 8.598083 4.310410
v 0.459733 8.801374 -3.651222
v 0.459733 11.661482 -3.541876
v -0.440606 11.657809 3.542158
v -0.461332 8.801245 3.651222
v 0.459733 11.051873 0.000000
v 0.459733 13.823419 0.000000
v 0.267204 11.464436 -4.188157
v 0.268451 8.598085 -4.310410
v -0.112396 9.252538 4.221750
v -0.112501 9.649090 4.204998
v -0.112649 10.208086 4.181385
v -0.112754 10.604619 4.164634
v 0.459733 10.905926 -3.570762
v 0.459733 10.510301 -3.585887
v 0.459733 9.952568 -3.607210
v 0.459733 9.556921 -3.622336
v 0.459733 10.864224 -2.068010
v 0.459733 11.248149 -2.066821
v 0.459733 11.789356 -2.065145
v 0.459733 12.173261 -2.063956
v 0.459733 13.091258 0.000000
v 0.459733 12.707882 0.000000
v 0.459733 12.167420 0.000000
v 0.459733 11.784024 0.000000
v 0.459733 10.864225 2.068010
v 0.459733 11.248149 2.066821
v 0.459733 11.789356 2.065145
v 0.459733 12.173262 2.063956
v 0.268122 9.355274 4.278114
v 0.267950 9.751795 4.261202
v 0.267706 10.310735 4.237363
v 0.267534 10.707236 4.220452
v 0.459733 10.905928 3.570762
v 0.459733 10.510300 3.585887
v 0.459733 9.952567 3.607210
v 0.459733 9.556921 3.622336
v 0.459733 9.252449 4.221761
v 0.459733 9.648918 4.205016
v 0.459733 10.207809 4.181410
v 0.459733 10.604259 4.164666
v -0.448949 10.508017 3.586057
v -0.446081 10.903225 3.570969
v -0.455857 9.555824 3.622412
v -0.452989 9.951045 3.607323
v -0.112396 9.252538 -4.221750
v -0.112501 9.649091 -4.204999
v -0.112649 10.208090 -4.181386
v -0.112754 10.604619 -4.164635
v 0.267534 10.707235 -4.220452
v 0.267706 10.310738 -4.237363
v 0.267950 9.751796 -4.261202
v 0.268122 9.355275 -4.278114
v -0.452989 9.951042 -3.607323
v -0.455857 9.555821 -3.622412
v -0.448949 10.508018 -3.586057
v -0.446081 10.903224 -3.570969
v -0.581493 10.863468 -2.067994
v -0.578735 11.247093 -2.066812
v -0.574850 11.787778 -2.065144
v -0.572093 12.171391 -2.063961
v -0.585704 12.166368 -0.000000
v -0.588366 11.783270 -0.000000
v -0.581952 12.706316 -0.000000
v -0.579290 13.089403 -0.000000
v 0.459733 9.252449 -4.221762
v 0.459733 9.648920 -4.205016
v 0.459733 10.207811 -4.181410
v 0.459733 10.604259 -4.164667
v -0.581492 10.863471 2.067994
v -0.578735 11.247095 2.066812
v -0.574850 11.787778 2.065144
v -0.572093 12.171391 2.063961
vn -0.9863 -0.0616 -0.1530
vn -0.9863 -0.0616 0.1530
vn -0.9964 -0.0015 0.0850
vn -1.0000 -0.0023 0.0012
vn -0.9931 0.0194 0.1157
vn -0.9996 -0.0276 0.0016
vn -1.0000 -0.0023 -0.0012
vn -0.9964 -0.0015 -0.0850
vn -0.9377 0.0975 0.3336
vn -0.2289 0.2895 0.9294
vn -0.4124 0.6710 0.6162
vn -0.9892 0.1110 0.0957
vn -0.8442 -0.2424 -0.4782
vn -0.2855 -0.4343 -0.8543
vn -0.4487 -0.7734 -0.4479
vn -0.9218 -0.3240 -0.2128
vn -0.8393 -0.1359 0.5264
vn -0.2090 -0.2317 0.9501
vn -0.1538 -0.0306 0.9876
vn -0.8639 -0.0132 0.5035
vn -0.8826 0.0439 -0.4680
vn -0.1483 -0.0010 0.9889
vn -0.8826 0.0439 0.4680
vn -0.8667 -0.0011 0.4988
vn -0.9218 -0.3240 0.2128
vn -0.4487 -0.7734 0.4479
vn -0.2855 -0.4343 0.8543
vn -0.8442 -0.2424 0.4782
vn -0.8639 -0.0132 -0.5035
vn -0.1538 -0.0306 -0.9876
vn -0.2090 -0.2317 -0.9501
vn -0.8393 -0.1359 -0.5264
vn -0.9892 0.1110 -0.0957
vn -0.4124 0.6710 -0.6162
vn -0.2289 0.2895 -0.9294
vn -0.9377 0.0975 -0.3336
vn -0.9968 -0.0007 -0.0800
vn -0.1483 -0.0010 -0.9889
vn -0.1604 0.0838 -0.9835
vn -0.1605 0.0838 0.9835
vn -1.0000 -0.0005 -0.0039
vn -0.1077 -0.0004 0.9942
vn -0.9931 0.0194 -0.1157
vn -1.0000 -0.0005 0.0039
vn -0.1578 0.0418 -0.9866
vn -0.9968 -0.0007 0.0800
vn -0.9998 0.0152 -0.0116
vn -0.9998 0.0152 0.0116
vn -0.8667 -0.0011 -0.4988
vn -0.9990 -0.0180 0.0405
vn -0.9990 -0.0180 -0.0405
vn -0.9990 -0.0036 0.0443
vn -0.9990 -0.0036 -0.0443
vn -0.9997 -0.0249 0.0000
vn -1.0000 -0.0008 0.0000
vn 0.0000 0.0000 1.0000
vn 0.0000 -1.0000 0.0000
vn -0.9996 -0.0276 -0.0016
vn -0.1087 0.0000 0.9941
vn -0.9124 0.4094 0.0000
vn 0.0000 0.0000 -1.0000
vn -0.7681 0.6404 0.0000
vn 0.0566 -0.9984 0.0000
vn -0.7435 0.6599 0.1088
vn -0.7435 0.6599 -0.1088
vn -1.0000 0.0000 -0.0000
vn -0.9998 -0.0192 0.0000
vn 0.2980 -0.9546 0.0000
vn 0.3264 -0.9452 0.0000
vn -0.1087 0.0000 -0.9941
vn -0.8551 0.5151 0.0595
vn -0.1077 -0.0004 -0.9942
vn -0.8551 0.5151 -0.0595
vn 1.0000 -0.0000 0.0000
vn 0.3002 0.0405 0.9530
vn -0.1568 0.0418 0.9867
vn -0.1568 0.0418 -0.9867
vn -0.1558 0.0418 -0.9869
vn -0.9957 0.0091 -0.0917
vn -1.0000 0.0071 0.0066
vn 0.3028 0.0405 -0.9522
vn -1.0000 0.0071 0.0067
vn -0.9961 0.0090 0.0874
vn -0.9957 0.0091 0.0917
vn -1.0000 0.0071 0.0064
vn -0.9959 0.0091 -0.0895
vn 0.2975 0.0405 -0.9538
vn -1.0000 0.0071 -0.0067
vn -1.0000 0.0071 -0.0064
vn -1.0000 0.0071 -0.0066
vn -0.9961 0.0090 -0.0874
vn -0.8645 0.0232 -0.5021
vn -0.8680 0.0230 -0.4960
vn 0.3002 0.0405 -0.9530
vn -0.8610 0.0234 -0.5081
vn -0.1558 0.0418 0.9869
vn -0.1578 0.0418 0.9866
vn -0.8610 0.0234 0.5081
vn -0.8680 0.0230 0.4960
vn 0.3028 0.0405 0.9522
vn 0.2975 0.0405 0.9538
vn -0.9959 0.0091 0.0895
vn -0.1572 0.0418 -0.9867
vn -0.1563 0.0418 -0.9868
vn -0.8661 0.0231 -0.4994
vn -0.9960 0.0090 -0.0885
vn -0.9959 0.0091 -0.0905
vn -1.0000 0.0071 0.0065
vn -0.9959 0.0091 0.0905
vn -0.9960 0.0090 0.0885
vn -1.0000 0.0071 -0.0065
vn -0.8629 0.0233 -0.5048
vn -0.8661 0.0231 0.4994
vn -0.8629 0.0233 0.5048
vn -0.1572 0.0418 0.9867
vn -0.1563 0.0418 0.9868
vn -0.8645 0.0232 0.5021
vn 0.6500 0.5597 -0.5141
vn 0.4083 0.2716 -0.8715
vn 0.2947 -0.0301 -0.9551
vn 0.3817 -0.2197 -0.8978
vn 0.6843 -0.6310 0.3655
vn 0.4908 -0.3950 0.7766
vn 0.3014 0.0811 0.9500
vn 0.2871 -0.0008 0.9579
vn 0.3817 -0.2197 0.8978
vn 0.2947 -0.0301 0.9551
vn 0.2871 -0.0008 -0.9579
vn 0.4908 -0.3950 -0.7766
vn 0.6843 -0.6310 -0.3655
vn 0.4083 0.2716 0.8715
vn 0.6500 0.5597 0.5141
vn 0.3014 0.0811 -0.9500
vn 0.2990 0.0405 -0.9534
vn 0.3014 0.0405 -0.9526
vn 0.2990 0.0405 0.9534
vn 0.3014 0.0405 0.9526
usemtl FFFFFF
s off
f 88//1 87//1 27//1 63//1 23//1
f 83//2 85//2 35//2 61//2 26//2
f 83//3 26//3 67//3 90//3
f 84//4 89//4 99//4 95//4
f 134//5 145//5 57//5 17//5
f 86//6 88//6 23//6 71//6 97//6 96//6
f 86//7 96//7 98//7 93//7
f 87//8 92//8 65//8 27//8
f 11//9 17//9 57//9 43//9
f 11//10 43//10 75//10 51//10
f 11//11 51//11 82//11 42//11
f 11//12 42//12 69//12 17//12
f 12//13 23//13 63//13 22//13
f 12//14 22//14 77//14 52//14
f 12//15 52//15 81//15 41//15
f 12//16 41//16 71//16 23//16
f 13//17 26//17 61//17 25//17
f 13//18 25//18 78//18 53//18
f 13//19 53//19 79//19 31//19
f 13//20 31//20 67//20 26//20
f 128//21 136//21 59//21 20//21
f 79//22 142//22 126//22 31//22
f 125//23 43//23 57//23 145//23
f 31//24 126//24 146//24 67//24
f 14//25 35//25 71//25 41//25
f 14//26 41//26 81//26 54//26
f 14//27 54//27 78//27 25//27
f 14//28 25//28 61//28 35//28
f 15//29 27//29 65//29 32//29
f 15//30 32//30 80//30 55//30
f 15//31 55//31 77//31 22//31
f 15//32 22//32 63//32 27//32
f 16//33 33//33 69//33 42//33
f 16//34 42//34 82//34 56//34
f 16//35 56//35 76//35 20//35
f 16//36 20//36 59//36 33//36
f 65//37 92//37 94//37 129//37 135//37
f 150//38 80//38 32//38 127//38
f 128//39 20//39 76//39 149//39
f 125//40 141//40 75//40 43//40
f 98//41 100//41 139//41 129//41 94//41 93//41
f 103//42 106//42 110//42 109//42
f 130//43 33//43 59//43 136//43
f 100//44 99//44 89//44 91//44 133//44 139//44
f 187//45 194//45 150//45 127//45
f 91//46 90//46 67//46 146//46 133//46
f 130//47 140//47 69//47 33//47
f 134//48 17//48 69//48 140//48
f 127//49 32//49 65//49 135//49
f 83//50 84//50 85//50
f 86//51 87//51 88//51
f 89//52 90//52 91//52
f 92//53 93//53 94//53
f 95//54 96//54 97//54
f 98//55 99//55 100//55
f 95//56 99//56 106//56 103//56
f 84//57 83//57 74//57 40//57
f 83//56 90//56 4//56 74//56
f 85//58 84//58 95//58 97//58 71//58 35//58
f 38//59 102//59 114//59 113//59
f 106//60 105//60 107//60 110//60
f 89//61 84//61 40//61 8//61
f 99//62 98//62 105//62 106//62
f 98//61 96//61 104//61 105//61
f 96//63 95//63 103//63 104//63
f 86//56 93//56 102//56 38//56
f 93//64 92//64 101//64 102//64
f 90//65 89//65 8//65 4//65
f 92//61 87//61 30//61 101//61
f 87//57 86//57 38//57 30//57
f 117//66 118//66 115//66 116//66
f 113//66 114//66 111//66 112//66
f 109//67 110//67 107//67 108//67
f 104//68 103//68 109//68 108//68
f 30//69 38//69 113//69 112//69
f 8//70 40//70 116//70 115//70
f 102//71 101//71 111//71 114//71
f 101//70 30//70 112//70 111//70
f 40//69 74//69 117//69 116//69
f 74//59 4//59 118//59 117//59
f 105//72 104//72 108//72 107//72
f 4//73 8//73 115//73 118//73
f 180//74 177//74 176//74 181//74
f 181//75 173//75 172//75 180//75
f 168//74 165//74 164//74 169//74
f 121//74 138//74 175//74 170//74
f 160//74 157//74 156//74 161//74
f 123//74 148//74 163//74 162//74
f 132//74 144//74 155//74 210//74
f 152//76 172//76 173//76 153//76
f 189//77 192//77 193//77 188//77
f 128//78 149//78 191//78 190//78
f 130//79 136//79 198//79 202//79
f 213//80 205//80 203//80 212//80
f 124//74 143//74 158//74 159//74
f 131//81 150//81 194//81 207//81
f 134//82 140//82 206//82 214//82
f 133//83 146//83 185//83 211//83
f 214//84 184//84 145//84 134//84
f 211//85 204//85 139//85 133//85
f 201//86 197//86 195//86 200//86
f 210//87 191//87 149//87 132//87
f 209//74 156//74 157//74 208//74
f 162//74 155//74 144//74 123//74
f 202//88 206//88 140//88 130//88
f 129//89 139//89 204//89 199//89
f 200//90 203//90 205//90 201//90
f 199//91 196//91 135//91 129//91
f 188//92 195//92 197//92 189//92
f 190//93 198//93 136//93 128//93
f 208//94 193//94 192//94 209//94
f 127//95 135//95 196//95 187//95
f 154//96 174//96 141//96 125//96
f 126//97 142//97 171//97 151//97
f 151//98 185//98 146//98 126//98
f 125//99 145//99 184//99 154//99
f 170//74 163//74 148//74 121//74
f 159//74 166//74 147//74 124//74
f 161//74 164//74 165//74 160//74
f 207//74 158//74 143//74 131//74
f 179//100 171//100 142//100 120//100
f 167//74 178//74 137//74 122//74
f 169//74 176//74 177//74 168//74
f 122//74 147//74 166//74 167//74
f 182//74 175//74 138//74 119//74
f 119//101 141//101 174//101 182//101
f 212//102 186//102 183//102 213//102
f 120//74 137//74 178//74 179//74
f 194//103 187//103 188//103 193//103
f 192//104 189//104 190//104 191//104
f 198//105 190//105 189//105 197//105
f 196//106 199//106 200//106 195//106
f 197//107 201//107 202//107 198//107
f 206//90 202//90 201//90 205//90
f 204//108 211//108 212//108 203//108
f 205//80 213//80 214//80 206//80
f 184//109 214//109 213//109 183//109
f 186//110 212//110 211//110 185//110
f 203//111 200//111 199//111 204//111
f 195//112 188//112 187//112 196//112
f 183//113 153//113 154//113 184//113
f 185//114 151//114 152//114 186//114
f 172//115 152//115 151//115 171//115
f 174//116 154//116 153//116 173//116
f 153//117 183//117 186//117 152//117
usemtl F44336
f 1//118 56//118 82//118 50//118
f 1//74 50//74 70//74 19//74
f 1//74 19//74 60//74 44//74
f 1//119 44//119 76//119 56//119
f 2//120 55//120 80//120 48//120
f 2//74 48//74 66//74 21//74
f 2//74 21//74 64//74 45//74
f 2//121 45//121 77//121 55//121
f 3//122 54//122 81//122 49//122
f 3//74 49//74 72//74 24//74
f 3//74 24//74 62//74 46//74
f 3//123 46//123 78//123 54//123
f 68//74 137//74 120//74 47//74
f 119//124 18//124 75//124 141//124
f 47//125 120//125 142//125 79//125
f 122//74 29//74 73//74 147//74
f 121//74 34//74 58//74 138//74
f 68//74 29//74 122//74 137//74
f 121//74 148//74 70//74 34//74
f 5//74 24//74 72//74 39//74
f 5//74 39//74 73//74 29//74
f 5//74 29//74 68//74 28//74
f 5//74 28//74 62//74 24//74
f 6//126 53//126 78//126 46//126
f 6//74 46//74 62//74 28//74
f 6//74 28//74 68//74 47//74
f 6//127 47//127 79//127 53//127
f 7//74 36//74 64//74 21//74
f 7//74 21//74 66//74 37//74
f 7//74 37//74 73//74 39//74
f 7//74 39//74 72//74 36//74
f 124//74 37//74 66//74 143//74
f 123//74 19//74 70//74 148//74
f 147//74 73//74 37//74 124//74
f 131//128 48//128 80//128 150//128
f 9//129 52//129 77//129 45//129
f 9//74 45//74 64//74 36//74
f 9//74 36//74 72//74 49//74
f 9//130 49//130 81//130 52//130
f 10//131 51//131 75//131 18//131
f 10//74 18//74 58//74 34//74
f 10//74 34//74 70//74 50//74
f 10//132 50//132 82//132 51//132
f 132//133 149//133 76//133 44//133
f 143//74 66//74 48//74 131//74
f 132//74 44//74 60//74 144//74
f 123//74 144//74 60//74 19//74
f 119//74 138//74 58//74 18//74
f 158//74 207//74 208//74 157//74
f 156//74 209//74 210//74 155//74
f 191//134 210//134 209//134 192//134
f 193//135 208//135 207//135 194//135
f 164//74 161//74 162//74 163//74
f 166//74 159//74 160//74 165//74
f 157//74 160//74 159//74 158//74
f 155//74 162//74 161//74 156//74
f 176//74 169//74 170//74 175//74
f 178//74 167//74 168//74 177//74
f 165//74 168//74 167//74 166//74
f 163//74 170//74 169//74 164//74
f 173//136 181//136 182//136 174//136
f 171//137 179//137 180//137 172//137
f 177//74 180//74 179//74 178//74
f 175//74 182//74 181//74 176//74
